<svg width="675.74509" height="527.0383" xmlns="http://www.w3.org/2000/svg">

 <g>
  <title>Layer 1</title>
  <path id="svg_1" fill="#e6e6e6" d="m465.8721,323.63787a361.65067,361.65067 0 0 1 -16.89367,99.97188c-0.23537,0.75106 -0.482,1.49089 -0.72861,2.242l-63.0458,0c0.06726,-0.67265 0.13458,-1.42371 0.20184,-2.242c4.2038,-48.3269 28.44008,-342.45809 -0.53813,-392.758c2.5335,4.08052 85.89197,139.22978 81.00437,292.78612z"/>
  <path id="svg_2" fill="#e6e6e6" d="m461.14146,423.60975c-0.52691,0.75106 -1.0762,1.50212 -1.6367,2.242l-47.29552,0c0.35873,-0.639 0.7735,-1.39 1.25553,-2.242c7.81349,-14.10236 30.93991,-56.26362 52.40733,-99.97188c23.07046,-46.97045 44.23518,-95.72327 42.45274,-113.368c0.54926,3.97958 16.51249,125.29552 -47.18338,213.33988z"/>
  <path id="svg_3" fill="#e6e6e6" d="m380.3551,426.85002l-88.74,0c-0.11,-0.34 -0.22,-0.67 -0.33,-1c-0.22,-0.67 -0.44,-1.33 -0.65,-2c-0.02,-0.05 -0.03,-0.11 -0.05,-0.16c-0.66,-2.05 -1.31,-4.11 -1.94,-6.16q-4.965,-16.14 -8.72,-32.32a97.76134,97.76134 0 0 0 47.84,15.13c-0.8,-1.46 -1.61,-2.96 -2.45,-4.51l-53.31,-52.82q-1.965,-13.575 -3.18,-27.07l81.99,81.99c1.21,-0.27 2.41,-0.57 3.6,-0.89a90.6206,90.6206 0 0 0 22.65,-9.5c0.87,10.84 1.63,20.04 2.24,27.28c0.3,3.4 0.55,6.37 0.77,8.87c0,0.05 0.01,0.11 0.01,0.16c0.06,0.71 0.12,1.38 0.18,2c0.03,0.35 0.06,0.68 0.09,1z"/>
  <path id="svg_4" fill="#e6e6e6" d="m375.6251,369.07002q-2.205,1.665 -4.54,3.14a72.25286,72.25286 0 0 1 -15.27,7.38l-81.54,-81.54l-7.16,-7.16q-0.195,-3.96 -0.31,-7.92q-0.21,-6.45008 -0.26,-12.88a75.43641,75.43641 0 0 1 57.49,-36.11c2.22,-0.21 4.48,-0.31 6.76,-0.31a74.29425,74.29425 0 0 1 22.92,3.62a75.17712,75.17712 0 0 1 13.55,5.87c1.28,23.03 2.66,45.12 4.03,65.56l-7.14,0l0,16.67l8.27,0c0.66,9.36 1.3,18.3 1.92,26.73q0.66,8.865 1.28,16.95z"/>
  <path id="svg_5" fill="#e6e6e6" d="m365.9051,217.66002q0.165,3.19493 0.33,6.38a91.36157,91.36157 0 0 0 -99.34,19.29q0.59994,-16.92 2.1,-33.52c16.24,-182.78 107.24,-331.54 111.74,-338.81c-23.06,40.4 -22.07,190.96 -15.82,326.1q0.48,10.35 0.99,20.56z"/>
  <path id="svg_6" fill="#e6e6e6" d="m274.2751,298.05002l-7.16,-7.16l-7.19,-7.19a76.84651,76.84651 0 0 1 3.41,-7.83q1.725,3.555 3.47,7.1q3.72,7.575 7.47,15.08z"/>
  <path id="svg_7" fill="#e6e6e6" d="m342.3451,426.85002l-66.57,0c-0.25,-0.33 -0.5,-0.66 -0.75,-1c-0.49005,-0.66 -0.98,-1.33 -1.45,-2c-0.04,-0.05 -0.07,-0.11 -0.11,-0.16q-8.535,-11.805 -15.75,-24.12l-0.01,-0.01c-20.98,-35.63 -34.05,-73.8 -42.04,-110.06c-18.94,-85.99 -9.28,-161.18 -8.62,-166c-1.8,18.49 14.14,61.03 35.74,108.74c3.83,8.47 7.84,17.1 11.96,25.78a91.29423,91.29423 0 0 0 -13.16,30.68l57.11,57.11c9.92,18.99 19.12,36.17 26.62,50.02l-53.31,-52.82l-32.93,-32.63a90.50639,90.50639 0 0 0 26.69,63.37a87.00854,87.00854 0 0 0 14.16,11.46a97.76134,97.76134 0 0 0 47.84,15.13c5.48,10.09 9.9,18.1 12.81,23.35c0.03,0.06 0.06,0.11 0.09,0.16c0.22,0.39 0.43,0.76 0.63,1.12c0.17005,0.31 0.33,0.6 0.49,0.88c0.19,0.35 0.38,0.68 0.56,1z"/>
  <rect id="svg_8" fill="#2f2e41" height="2" width="984" y="418.85177" x="-212.25235"/>
  <path id="svg_10" fill="#ff0000" d="m438.4251,313.39002c0.66,9.36 1.3,18.3 1.92,26.73q0.66,8.865 1.28,16.95a73.59124,73.59124 0 0 0 8.39,-7.28a76.4026,76.4026 0 0 0 20.16,-36.4l-31.75,0zm-105.62,-42.42q-0.21,-6.45008 -0.26,-12.88q-1.72494,2.805 -3.21,5.78a76.84651,76.84651 0 0 0 -3.41,7.83l7.19,7.19q-0.195,-3.96 -0.31,-7.92zm105.62,42.42c0.66,9.36 1.3,18.3 1.92,26.73q0.66,8.865 1.28,16.95a73.59124,73.59124 0 0 0 8.39,-7.28a76.4026,76.4026 0 0 0 20.16,-36.4l-31.75,0zm0,0c0.66,9.36 1.3,18.3 1.92,26.73q0.66,8.865 1.28,16.95a73.59124,73.59124 0 0 0 8.39,-7.28a76.4026,76.4026 0 0 0 20.16,-36.4l-31.75,0zm-105.88,-55.3q-1.72494,2.805 -3.21,5.78a76.84651,76.84651 0 0 0 -3.41,7.83l7.19,7.19q-0.195,-3.96 -0.31,-7.92q-0.21,-6.45007 -0.26,-12.88zm172.42,-5.13a117.74694,117.74694 0 0 0 -74.05,-67.86a116.09591,116.09591 0 0 0 -95.92,12.71a118.00739,118.00739 0 0 0 -26.21,22.43a116.289,116.289 0 0 0 14.92,167.32l0.01,0.01a116.9428,116.9428 0 0 0 30.93,17.96a115.74138,115.74138 0 0 0 42.15,7.92q5.31006,0 10.5,-0.48q4.395,-0.39 8.69,-1.12a114.26934,114.26934 0 0 0 29.32,-9.03a117.78741,117.78741 0 0 0 61.17,-66.23a114.65572,114.65572 0 0 0 5.86,-23.2a116.11195,116.11195 0 0 0 -7.37,-60.43zm-159.04,120.25a87.00854,87.00854 0 0 1 -14.16,-11.46a90.50639,90.50639 0 0 1 -26.69,-63.37l32.93,32.63l53.31,52.82l4.65,4.61c-0.73,-0.03 -1.47,-0.06 -2.2,-0.1a97.76134,97.76134 0 0 1 -47.84,-15.13zm141.04,-59.82a91.41509,91.41509 0 0 1 -25.45,47.9a93.12626,93.12626 0 0 1 -12.74,10.61c-1.85,1.28 -3.76,2.5 -5.71,3.64a90.6206,90.6206 0 0 1 -22.65,9.5c-1.19,0.32 -2.39,0.62 -3.6,0.89l-109.23,-109.23a91.29423,91.29423 0 0 1 13.16,-30.68a93.09412,93.09412 0 0 1 12.15,-14.69a90.99929,90.99929 0 0 1 63.9,-26.33a91.201,91.201 0 0 1 53.4,17.05a93.56227,93.56227 0 0 1 20.81,20.47l-12.5,10.84a79.2519,79.2519 0 0 0 -25.24,-22.2a75.17712,75.17712 0 0 0 -13.55,-5.87a74.29425,74.29425 0 0 0 -22.92,-3.62c-2.28,0 -4.54,0.1 -6.76,0.31a75.43641,75.43641 0 0 0 -57.49,36.11q-1.72494,2.805 -3.21,5.78a76.84651,76.84651 0 0 0 -3.41,7.83l7.19,7.19l7.16,7.16l81.54,81.54a72.25286,72.25286 0 0 0 15.27,-7.38q2.34,-1.47006 4.54,-3.14a73.59124,73.59124 0 0 0 8.39,-7.28a76.4026,76.4026 0 0 0 20.16,-36.4l-40.02,0l0,-16.67l58.36,0a89.8968,89.8968 0 0 1 -1.55,16.67zm-48.54,0c0.66,9.36 1.3,18.3 1.92,26.73q0.66,8.865 1.28,16.95a73.59124,73.59124 0 0 0 8.39,-7.28a76.4026,76.4026 0 0 0 20.16,-36.4l-31.75,0zm0,0c0.66,9.36 1.3,18.3 1.92,26.73q0.66,8.865 1.28,16.95a73.59124,73.59124 0 0 0 8.39,-7.28a76.4026,76.4026 0 0 0 20.16,-36.4l-31.75,0z"/>
  <polygon id="svg_11" fill="#ffb8b8" points="113.39801025390625,514.7059936523438 146.99798583984375,509.43597412109375 133.1619873046875,494.9420166015625 113.39801025390625,494.9420166015625 113.39801025390625,514.7059936523438 "/>
  <path id="svg_12" fill="#2f2e41" d="m120.83017,523.70694l33.236,-10.93289a6.46384,6.46384 0 0 0 3.76164,-9.03088l0,0a6.46383,6.46383 0 0 0 -6.21719,-3.55841l-7.5392,0.5094l-2.95462,-1.66282a1.71864,1.71864 0 0 0 -2.4321,2.15212l2.7247,6.61714l-27.67067,-1.97648l-1.36525,10.922a6.48147,6.48147 0 0 0 8.45669,6.96082z"/>
  <path id="svg_13" fill="#ffb8b8" d="m21.93143,498.15552l34.91776,9.22356c-6.43127,-13.34134 -10.39163,-25.14583 -7.90591,-32.94128l-16.47064,-1.97648l-10.54121,25.6942z"/>
  <path id="svg_14" fill="#2f2e41" d="m24.07802,509.86417l36.12873,2.34259a6.68859,6.68859 0 0 0 7.09939,-7.21643l0,0a6.68861,6.68861 0 0 0 -4.59385,-5.81747l-7.43422,-2.42311l-2.19407,-2.73754a1.77841,1.77841 0 0 0 -3.16605,1.12654l0.05968,7.40476l-25.79974,-12.58559l-5.52939,9.9575a6.70685,6.70685 0 0 0 5.42952,9.94875z"/>
  <circle id="svg_15" fill="#ffb8b8" r="24.37655" cy="67.96868" cx="138.42276"/>
  <path id="svg_16" fill="#ffb8b8" d="m99.74393,99.70533l28.17744,21.30489c4.55407,-17.38739 10.0199,-29.80731 17.18138,-32.98823l-28.17745,-16.49411l-17.18137,28.17745z"/>
  <polygon id="svg_17" fill="#2f2e41" points="26.894989013671875,472.197021484375 50.949005126953125,482.5059814453125 106.61599731445312,351.2409973144531 111.08401489257812,497.281982421875 135.13800048828125,495.90802001953125 161.94000244140625,267.052001953125 159.87899780273438,253.99398803710938 68.81698608398438,274.26800537109375 67.4429931640625,347.8039855957031 26.894989013671875,472.197021484375 "/>
  <path id="svg_18" fill="#2f2e41" d="m166.06402,60.87543s-15.80686,-14.43236 -20.61765,-8.24706s-6.18529,7.5598 -8.93431,7.5598s-9.62157,7.5598 -9.62157,7.5598s-3.43627,-6.87254 -7.5598,-1.37451s-4.81079,13.7451 -4.81079,13.7451s-15.1196,-35.05 11.68334,-41.92254s46.04607,14.43235 39.86078,22.67941z"/>
  <path id="svg_19" fill="#ff0000" d="m62.63216,285.26414c13.05785,-5.718 13.44275,-1.23021 32.301,6.18529c23.75157,2.94831 38.85054,3.32629 46.3897,-6.52892c3.08577,-19.56617 5.61482,-38.32822 7.17491,-56.16937q0.48447,-5.51518 0.83843,-10.92044c2.749,-41.97066 -0.61847,-78.457 -15.91677,-107.81655l-27.49019,-20.61765l-8.96871,6.50829c-21.42168,15.5457 -18.0886,39.4278 -20.93376,65.74282l-13.39461,123.61653z"/>
  <polygon id="svg_20" fill="#ffb8b8" points="87.79000854492188,288.0790100097656 102.22198486328125,275.7080078125 100.84799194335938,263.3380126953125 87.79000854492188,263.3380126953125 87.79000854492188,288.0790100097656 "/>
  <path id="svg_21" opacity="0.2" d="m108.69989,142.02934s-40.60272,52.91868 -11.60079,76.97255s45.22373,39.17352 45.22373,39.17352s-1.7208,-103.77548 -33.62294,-116.14607z"/>
  <path id="svg_22" opacity="0.2" d="m123.45422,207.94802l25.04353,20.80317q0.48447,-5.51518 0.83843,-10.92044l-16.94765,-75.8592l-8.93431,65.97647z"/>
  <path id="svg_23" fill="#ff0000" d="m141.66647,270.83179l19.93039,-15.80686l-26.11568,-65.97647l-0.59285,-68.77093a15.65921,15.65921 0 0 0 -10.41264,-14.61934l0,0a15.6592,15.6592 0 0 0 -20.90375,14.54273l-1.079,79.84363l39.17353,70.78724z"/>
  <text xml:space="preserve" text-anchor="start" font-family="sans-serif" font-size="65" id="svg_24" y="493.01915" x="140.37256" opacity="undefined" fill-opacity="null" stroke-opacity="null" stroke-dasharray="null" stroke-width="0" stroke="null" fill="#000000">Yeison Developer</text>
  <path id="svg_25" fill="#e6e6e6" d="m591.8721,326.63787a361.65067,361.65067 0 0 1 -16.89367,99.97188c-0.23537,0.75106 -0.482,1.49089 -0.72861,2.242l-63.0458,0c0.06726,-0.67265 0.13458,-1.42371 0.20184,-2.242c4.2038,-48.3269 28.44008,-342.45809 -0.53813,-392.758c2.5335,4.08052 85.89197,139.22978 81.00437,292.78612z"/>
  <path id="svg_26" fill="#e6e6e6" d="m595.14146,422.60975c-0.52691,0.75106 -1.0762,1.50212 -1.6367,2.242l-47.29552,0c0.35873,-0.639 0.7735,-1.39 1.25553,-2.242c7.81349,-14.10236 30.93991,-56.26362 52.40733,-99.97188c23.07046,-46.97045 44.23518,-95.72327 42.45274,-113.368c0.54926,3.97958 16.51249,125.29552 -47.18338,213.33988z"/>
 </g>
</svg>